# xmcd
#
# Track frame offsets:
#	150
#	20585
#	33933
#	55203
#	75756
#	96500
#	116922
#	137685
#	162082
#	181254
#	194994
#	231166
#	249111
#
# Disc length: 3731 seconds
#
# Revision: 1
# Processed by: cddbd v1.5.2PL0 Copyright (c) Steve Scherf et al.
# Submitted via: audiograbber 1.83.01
#
DISCID=a70e910d
DTITLE=ALEX BRITTI - La Vasca
DYEAR=2001
DGENRE=POP
TTITLE0=La vasca
TTITLE1=Una su 1.000.000
TTITLE2=Mamma and papà
TTITLE3=Fortuna che non era niente
TTITLE4=Lucciola
TTITLE5=Dendedendendenden
TTITLE6=Fuori
TTITLE7=Milano
TTITLE8=Il quadro
TTITLE9=Come funziona il mondo
TTITLE10=Una donna come tante
TTITLE11=Sono contento
TTITLE12=Io con la ragazza mia tu con la ragazza tua...
EXTD=
EXTT0=
EXTT1=
EXTT2=
EXTT3=
EXTT4=
EXTT5=
EXTT6=
EXTT7=
EXTT8=
EXTT9=
EXTT10=
EXTT11=
EXTT12=
PLAYORDER=
